<svg width="0" height="0" class="hidden">
  <symbol fill="none" xmlns="http://www.w3.org/2000/svg" viewBox="0 0 100 100" id="instagram">
    <path fill-rule="evenodd" clip-rule="evenodd" d="M50 100C77.6142 100 100 77.6142 100 50C100 22.3858 77.6142 0 50 0C22.3858 0 0 22.3858 0 50C0 77.6142 22.3858 100 50 100ZM25 39.3918C25 31.4558 31.4566 25 39.3918 25H60.6082C68.5442 25 75 31.4566 75 39.3918V60.8028C75 68.738 68.5442 75.1946 60.6082 75.1946H39.3918C31.4558 75.1946 25 68.738 25 60.8028V39.3918ZM60.6082 70.4317C65.9174 70.4317 70.2371 66.1121 70.2371 60.8028V39.3918C70.2371 34.0826 65.9174 29.7629 60.6082 29.7629H39.3918C34.0826 29.7629 29.7629 34.0826 29.7629 39.3918V60.8028C29.7629 66.1121 34.0826 70.4317 39.3918 70.4317H60.6082ZM36.9883 50.0054C36.9883 42.8847 42.8438 37.0922 50.0397 37.0922C57.2356 37.0922 63.0911 42.8847 63.0911 50.0054C63.0911 57.1252 57.2356 62.9177 50.0397 62.9177C42.843 62.9177 36.9883 57.1252 36.9883 50.0054ZM41.7422 50.0054C41.7422 54.5033 45.4641 58.1638 50.0397 58.1638C54.6153 58.1638 58.3372 54.5041 58.3372 50.0054C58.3372 45.5066 54.6145 41.8469 50.0397 41.8469C45.4641 41.8469 41.7422 45.5066 41.7422 50.0054ZM63.3248 39.6355C65.0208 39.6355 66.3956 38.2606 66.3956 36.5646C66.3956 34.8687 65.0208 33.4938 63.3248 33.4938C61.6288 33.4938 60.2539 34.8687 60.2539 36.5646C60.2539 38.2606 61.6288 39.6355 63.3248 39.6355Z" fill="#d5cbc0" id="id_116"></path>
  </symbol>
  <symbol fill="none" xmlns="http://www.w3.org/2000/svg" viewBox="0 0 100 100" id="facebook">
    <path fill-rule="evenodd" clip-rule="evenodd" d="M50 100C77.6142 100 100 77.6142 100 50C100 22.3858 77.6142 0 50 0C22.3858 0 0 22.3858 0 50C0 77.6142 22.3858 100 50 100ZM53.5357 23.0167C50.6527 23.0971 47.6106 23.7911 45.4617 25.8328C43.687 27.4744 42.7929 29.8636 42.592 32.2519C42.5308 33.9602 42.5395 35.6729 42.5483 37.3849C42.5548 38.6688 42.5614 39.9524 42.5384 41.2334C41.7492 41.2392 40.9575 41.2375 40.1655 41.2359C39.1093 41.2337 38.0525 41.2315 37 41.2468C37 42.2691 37.0015 43.2928 37.003 44.3174C37.006 46.3696 37.0089 48.4256 37 50.482C38.0525 50.4973 39.1093 50.4951 40.1655 50.4929C40.9575 50.4913 41.7492 50.4897 42.5384 50.4954C42.5563 54.5705 42.553 58.6454 42.5497 62.7203C42.5455 67.8139 42.5414 72.9074 42.5786 78.0008C44.7444 77.9855 46.9056 77.9877 49.0675 77.9899C50.6892 77.9916 52.3112 77.9932 53.9359 77.9874C53.9493 73.403 53.9459 68.8222 53.9426 64.2414C53.9392 59.6605 53.9359 55.0796 53.9493 50.4954C55.0417 50.4897 56.1342 50.4913 57.2266 50.4929C58.6832 50.4951 60.1398 50.4973 61.5964 50.482C62.0502 47.4123 62.4369 44.3157 62.6504 41.2066C61.2093 41.2 59.7679 41.2 58.3266 41.2C56.8853 41.2 55.444 41.2 54.0029 41.1933C54.0029 40.656 54.002 40.1187 54.0012 39.5815C53.9987 37.9701 53.9962 36.359 54.0163 34.7474C54.2431 33.5059 55.5239 32.5583 56.7654 32.6387H62.6638C62.6772 29.4224 62.6772 26.2196 62.6638 23.0033C61.9032 23.0033 61.1427 23.0025 60.3821 23.0017C58.1002 22.9992 55.818 22.9967 53.5357 23.0167Z" fill="#d5cbc0" id="id_115"></path>
  </symbol>
  <symbol fill="none" xmlns="http://www.w3.org/2000/svg" viewBox="0 0 100 100" id="linkedIn">
    <path fill-rule="evenodd" clip-rule="evenodd" d="M50 100C77.6142 100 100 77.6142 100 50C100 22.3858 77.6142 0 50 0C22.3858 0 0 22.3858 0 50C0 77.6142 22.3858 100 50 100ZM70.8607 70V54.5239C70.8607 46.2341 66.4341 42.3762 60.5277 42.3762C55.7617 42.3762 53.6325 44.9994 52.4401 46.836V43.0105H43.4662C43.5869 45.544 43.4662 70 43.4662 70H52.4416V54.9274C52.4416 54.1204 52.5027 53.3171 52.7395 52.7401C53.3889 51.1261 54.8642 49.4577 57.3433 49.4577C60.5903 49.4577 61.8883 51.9331 61.8883 55.5602V70H70.8607ZM52.4401 46.836V46.9235H52.3812C52.3986 46.8956 52.422 46.8647 52.4401 46.836ZM29 34.6627C29 32.0138 31.0078 30 34.0783 30C37.1495 30 39.0366 32.0138 39.0954 34.6627C39.0954 37.2535 37.1495 39.3284 34.0194 39.3284H33.9598C30.9504 39.3284 29 37.2535 29 34.6627ZM38.5048 70H29.5332V43.0105H38.5048V70Z" fill="#d5cbc0" id="id_113"></path>
  </symbol>
</svg>